<svg aria-hidden="true" style="position: absolute; width: 0; height: 0; overflow: hidden;" version="1.1" xmlns="http://www.w3.org/2000/svg" xmlns:xlink="http://www.w3.org/1999/xlink">
<defs>
<symbol id="briefcase" viewBox="0 0 32 32">
<path fill="#fafafa" style="fill: var(--color1, #fafafa)" d="M10 7c0-2.209 1.791-4 4-4h4c2.209 0 4 1.791 4 4v0.273c1.243 0.114 2.476 0.263 3.699 0.446 1.939 0.29 3.301 1.977 3.301 3.889v4.044c0 1.615-0.978 3.136-2.582 3.67-3.276 1.089-6.779 1.679-10.418 1.679s-7.142-0.589-10.418-1.679c-1.603-0.533-2.582-2.055-2.582-3.67v-4.044c0-1.912 1.363-3.599 3.301-3.889 1.222-0.183 2.455-0.332 3.699-0.446v-0.273zM20 7v0.121c-1.323-0.080-2.657-0.121-4-0.121s-2.677 0.041-4 0.121v-0.121c0-1.105 0.895-2 2-2h4c1.105 0 2 0.895 2 2zM16 18c0.552 0 1-0.448 1-1s-0.448-1-1-1c-0.552 0-1 0.448-1 1s0.448 1 1 1z"></path>
<path fill="#fafafa" style="fill: var(--color1, #fafafa)" d="M4 24.533v-3.728c0.297 0.163 0.615 0.302 0.951 0.414 3.477 1.156 7.193 1.781 11.049 1.781s7.572-0.625 11.049-1.781c0.336-0.112 0.653-0.251 0.951-0.414v3.728c0 1.936-1.396 3.637-3.364 3.898-2.826 0.375-5.708 0.569-8.636 0.569s-5.81-0.194-8.636-0.569c-1.968-0.261-3.364-1.962-3.364-3.898z"></path>
</symbol>
<symbol id="logosvg" viewBox="0 0 156 32">
<path fill="#000" style="fill: var(--color2, #000)" d="M30.478 10.258h-10.327v-10.258h-9.896c0 5.667-4.59 10.258-10.255 10.258v9.899h10.255v10.258h9.896c0-5.667 4.661-10.258 10.327-10.258v-9.899z"></path>
<path fill="#fafafa" style="fill: var(--color1, #fafafa)" d="M48.021 26.112v-15.36h-4.743v-2.949h12.78v2.949h-4.669v15.36h-3.367z"></path>
<path fill="#fafafa" style="fill: var(--color1, #fafafa)" d="M56.362 26.112v-13.369h3.023v2.974l-0.246-0.442c0.311-0.999 0.795-1.696 1.45-2.089 0.672-0.393 1.475-0.59 2.408-0.59h0.786v2.851h-1.155c-0.917 0-1.655 0.287-2.212 0.86-0.557 0.557-0.836 1.343-0.836 2.359v7.447h-3.219z"></path>
<path fill="#fafafa" style="fill: var(--color1, #fafafa)" d="M70.322 26.407c-1.032 0-1.933-0.229-2.703-0.688-0.754-0.459-1.335-1.098-1.745-1.917-0.393-0.819-0.59-1.778-0.59-2.875v-8.184h3.219v7.913c0 0.557 0.106 1.049 0.32 1.475 0.229 0.41 0.549 0.737 0.958 0.983 0.426 0.229 0.901 0.344 1.425 0.344s0.991-0.115 1.401-0.344c0.41-0.246 0.729-0.582 0.958-1.008s0.344-0.934 0.344-1.524v-7.84h3.219v13.369h-3.047v-2.63l0.27 0.467c-0.311 0.819-0.827 1.434-1.548 1.843-0.704 0.41-1.532 0.614-2.482 0.614z"></path>
<path fill="#fafafa" style="fill: var(--color1, #fafafa)" d="M86.93 26.407c-1.163 0-2.245-0.213-3.244-0.639-0.983-0.426-1.835-1.016-2.556-1.769-0.704-0.77-1.221-1.663-1.548-2.679l2.777-1.204c0.442 1.049 1.081 1.876 1.917 2.482 0.836 0.59 1.778 0.885 2.826 0.885 0.59 0 1.098-0.090 1.524-0.27 0.442-0.197 0.778-0.459 1.008-0.786 0.246-0.328 0.369-0.721 0.369-1.18 0-0.541-0.164-0.983-0.492-1.327-0.311-0.36-0.786-0.639-1.425-0.836l-3.514-1.131c-1.425-0.442-2.499-1.106-3.219-1.991s-1.081-1.925-1.081-3.121c0-1.049 0.254-1.974 0.762-2.777 0.524-0.803 1.245-1.425 2.163-1.868 0.934-0.459 1.999-0.688 3.195-0.688 1.098 0 2.105 0.197 3.023 0.59 0.918 0.377 1.704 0.909 2.359 1.597 0.672 0.672 1.171 1.466 1.499 2.384l-2.752 1.229c-0.36-0.917-0.901-1.622-1.622-2.114-0.721-0.508-1.556-0.762-2.507-0.762-0.557 0-1.049 0.098-1.475 0.295-0.426 0.18-0.762 0.442-1.008 0.786-0.229 0.328-0.344 0.721-0.344 1.18 0 0.508 0.164 0.958 0.492 1.352 0.328 0.377 0.827 0.672 1.499 0.885l3.367 1.057c1.458 0.475 2.548 1.13 3.269 1.966 0.737 0.836 1.106 1.868 1.106 3.097 0 1.049-0.27 1.974-0.811 2.777s-1.286 1.434-2.236 1.892c-0.95 0.459-2.056 0.688-3.318 0.688z"></path>
<path fill="#fafafa" style="fill: var(--color1, #fafafa)" d="M102.473 26.407c-1.327 0-2.523-0.303-3.588-0.909-1.049-0.623-1.876-1.458-2.482-2.507-0.606-1.065-0.909-2.261-0.909-3.588s0.303-2.515 0.909-3.564c0.606-1.049 1.434-1.876 2.482-2.482 1.065-0.606 2.261-0.909 3.588-0.909 0.95 0 1.835 0.172 2.654 0.516 0.819 0.328 1.524 0.786 2.114 1.376 0.606 0.573 1.040 1.262 1.303 2.064l-2.826 1.229c-0.246-0.672-0.664-1.212-1.253-1.622-0.573-0.41-1.237-0.614-1.991-0.614-0.704 0-1.335 0.172-1.892 0.516-0.541 0.344-0.967 0.819-1.278 1.425s-0.467 1.303-0.467 2.089c0 0.786 0.156 1.483 0.467 2.089s0.737 1.081 1.278 1.425c0.557 0.344 1.188 0.516 1.892 0.516 0.77 0 1.442-0.205 2.015-0.614s0.983-0.958 1.229-1.647l2.826 1.278c-0.262 0.754-0.688 1.434-1.278 2.040-0.59 0.59-1.294 1.057-2.114 1.401-0.819 0.328-1.712 0.492-2.679 0.492z"></path>
<path fill="#fafafa" style="fill: var(--color1, #fafafa)" d="M114.993 26.407c-0.934 0-1.745-0.156-2.433-0.467s-1.221-0.754-1.597-1.327c-0.377-0.59-0.565-1.27-0.565-2.040 0-0.737 0.164-1.393 0.492-1.966 0.328-0.59 0.836-1.081 1.524-1.475s1.556-0.672 2.605-0.836l4.375-0.713v2.458l-3.76 0.639c-0.639 0.115-1.114 0.32-1.425 0.614s-0.467 0.68-0.467 1.155c0 0.459 0.172 0.827 0.516 1.106 0.36 0.262 0.803 0.393 1.327 0.393 0.672 0 1.262-0.139 1.769-0.418 0.524-0.295 0.926-0.696 1.204-1.204 0.295-0.508 0.442-1.065 0.442-1.671v-3.441c0-0.573-0.229-1.049-0.688-1.425-0.442-0.393-1.032-0.59-1.769-0.59-0.688 0-1.303 0.188-1.843 0.565-0.524 0.36-0.909 0.844-1.155 1.45l-2.63-1.278c0.262-0.704 0.672-1.311 1.229-1.819 0.573-0.524 1.245-0.934 2.015-1.229s1.606-0.442 2.507-0.442c1.098 0 2.064 0.205 2.9 0.614 0.836 0.393 1.483 0.95 1.942 1.671 0.475 0.704 0.713 1.532 0.713 2.482v8.896h-3.047v-2.286l0.688-0.049c-0.344 0.573-0.754 1.057-1.229 1.45-0.475 0.377-1.016 0.672-1.622 0.885-0.606 0.197-1.278 0.295-2.015 0.295z"></path>
<path fill="#fafafa" style="fill: var(--color1, #fafafa)" d="M125.194 31.027v-18.285h3.023v2.654l-0.295-0.664c0.459-0.721 1.081-1.278 1.867-1.671 0.787-0.41 1.696-0.614 2.729-0.614 1.261 0 2.4 0.311 3.415 0.934 1.016 0.623 1.819 1.458 2.409 2.507 0.607 1.049 0.909 2.228 0.909 3.539 0 1.294-0.294 2.474-0.884 3.539s-1.393 1.909-2.408 2.531c-1.016 0.606-2.171 0.909-3.466 0.909-0.966 0-1.859-0.188-2.678-0.565-0.804-0.393-1.443-0.95-1.917-1.671l0.516-0.639v7.496h-3.219zM132.124 23.458c0.737 0 1.393-0.172 1.966-0.516s1.016-0.819 1.327-1.425c0.328-0.606 0.492-1.303 0.492-2.089s-0.164-1.475-0.492-2.064c-0.311-0.606-0.754-1.081-1.327-1.425-0.573-0.36-1.229-0.541-1.966-0.541-0.704 0-1.343 0.172-1.916 0.516-0.557 0.344-1 0.827-1.327 1.45-0.311 0.606-0.467 1.294-0.467 2.064 0 0.786 0.156 1.483 0.467 2.089 0.328 0.606 0.771 1.081 1.327 1.425 0.573 0.344 1.212 0.516 1.916 0.516z"></path>
<path fill="#fafafa" style="fill: var(--color1, #fafafa)" d="M148.047 26.407c-1.377 0-2.58-0.311-3.613-0.934-1.032-0.623-1.834-1.466-2.408-2.531s-0.86-2.245-0.86-3.539c0-1.343 0.287-2.531 0.86-3.564 0.589-1.049 1.384-1.876 2.383-2.482 1.016-0.606 2.147-0.909 3.392-0.909 1.048 0 1.966 0.172 2.752 0.516 0.803 0.344 1.482 0.819 2.040 1.425 0.557 0.606 0.983 1.303 1.277 2.089 0.294 0.77 0.443 1.606 0.443 2.507 0 0.229-0.017 0.467-0.050 0.713-0.017 0.246-0.058 0.459-0.123 0.639h-10.322v-2.458h8.503l-1.523 1.155c0.147-0.754 0.106-1.425-0.123-2.015-0.212-0.59-0.573-1.057-1.082-1.401-0.492-0.344-1.089-0.516-1.793-0.516-0.672 0-1.27 0.172-1.795 0.516-0.525 0.328-0.925 0.819-1.204 1.475-0.262 0.639-0.36 1.417-0.294 2.335-0.065 0.819 0.041 1.548 0.319 2.187 0.296 0.623 0.722 1.106 1.279 1.45 0.573 0.344 1.229 0.516 1.966 0.516s1.359-0.156 1.868-0.467c0.525-0.311 0.934-0.729 1.229-1.253l2.605 1.278c-0.262 0.639-0.672 1.204-1.229 1.696s-1.22 0.877-1.99 1.155c-0.754 0.279-1.59 0.418-2.506 0.418z"></path>
</symbol>
<symbol id="squares" viewBox="0 0 32 32">
<path fill="#fafafa" style="fill: var(--color1, #fafafa)" d="M4 8c0-2.209 1.791-4 4-4h3c2.209 0 4 1.791 4 4v3c0 2.209-1.791 4-4 4h-3c-2.209 0-4-1.791-4-4v-3zM17 8c0-2.209 1.791-4 4-4h3c2.209 0 4 1.791 4 4v3c0 2.209-1.791 4-4 4h-3c-2.209 0-4-1.791-4-4v-3zM4 21c0-2.209 1.791-4 4-4h3c2.209 0 4 1.791 4 4v3c0 2.209-1.791 4-4 4h-3c-2.209 0-4-1.791-4-4v-3zM17 21c0-2.209 1.791-4 4-4h3c2.209 0 4 1.791 4 4v3c0 2.209-1.791 4-4 4h-3c-2.209 0-4-1.791-4-4v-3z"></path>
</symbol>
<symbol id="exit" viewBox="0 0 32 32">
<path fill="#f1f5f9" style="fill: var(--color1, #f1f5f9)" d="M10 5c-1.105 0-2 0.895-2 2v18c0 1.105 0.895 2 2 2h8c1.105 0 2-0.895 2-2v-5c0-0.552 0.448-1 1-1s1 0.448 1 1v5c0 2.209-1.791 4-4 4h-8c-2.209 0-4-1.791-4-4v-18c0-2.209 1.791-4 4-4h8c2.209 0 4 1.791 4 4v5c0 0.552-0.448 1-1 1s-1-0.448-1-1v-5c0-1.105-0.895-2-2-2h-8zM16.707 11.293c0.391 0.391 0.391 1.024 0 1.414l-2.293 2.293h14.586c0.552 0 1 0.448 1 1s-0.448 1-1 1h-14.586l2.293 2.293c0.391 0.39 0.391 1.024 0 1.414s-1.024 0.391-1.414 0l-4-4c-0.391-0.391-0.391-1.024 0-1.414l4-4c0.391-0.391 1.024-0.391 1.414 0z"></path>
</symbol>
</defs>
</svg>
